<?xml version="1.0" encoding="UTF-8"?><svg id="Layer_2" xmlns="http://www.w3.org/2000/svg" viewBox="0 0 156.7071 75.7316"><g id="Components"><path id="_03d0df82-77a1-4580-97c4-75258ead50cd_5" d="M0,44.7888h9.3242c7.7701.0546,10.033,1.4448,10.033,4.9074,0,1.7449-1.0906,3.0262-4.4168,3.6807,4.2805.6544,6.0526,2.1538,6.0526,4.8803,0,4.0075-2.8082,5.5615-11.6689,5.6161H0v-19.0845ZM9.1879,52.6407c6.1344,0,8.0427-.8178,8.0427-2.9445s-1.9083-2.9445-8.0427-2.9445H2.0448v5.889h7.1431ZM9.1879,61.9103c7.2248,0,9.6785-.9816,9.6785-3.6532s-2.4537-3.6535-9.6785-3.6535H2.0448v7.3067h7.1431ZM24.264,44.7888h2.0448v17.1216h12.8684v1.9629h-14.9132v-19.0845ZM40.8129,44.7888h2.0448v9.5422c0,5.3981,2.2084,7.8519,8.07,7.8519s8.0701-2.4539,8.0701-7.8519v-9.5422h2.0448v9.5422c0,6.4889-2.8082,9.8969-10.1149,9.8969s-10.1148-3.408-10.1148-9.8969v-9.5422ZM64.7226,44.7888h9.3242c7.7701.0546,10.033,1.9904,10.033,5.4527s-2.263,5.3984-10.033,5.4527h-7.2794v8.1792h-2.0448v-19.0845ZM81.9531,50.2414c0-2.1267-1.9083-3.4898-8.0427-3.4898h-7.1431v6.9795h7.1431c6.1344,0,8.0427-1.3631,8.0427-3.4898ZM86.9414,44.7888h9.3242c7.7701.0546,10.033,1.4448,10.033,4.9074,0,3.1625-1.9085,4.5802-8.1792,4.8528l8.6427,9.3242h-2.9172l-8.5881-9.2696h-6.2707v9.2696h-2.0448v-19.0845ZM104.172,49.6962c0-2.1267-1.9083-2.9445-8.0427-2.9445h-7.1431v5.889h7.1431c6.1344,0,8.0427-.8178,8.0427-2.9445ZM110.0328,44.7888h2.0448v19.0845h-2.0448v-19.0845ZM116.1666,44.7888h2.0448l16.1401,16.2491v-16.2491h2.0448v19.0845h-2.0448l-16.1401-16.2491v16.2491h-2.0448v-19.0845ZM146.9739,46.7517h-7.7156v-1.9629h17.4488v1.9629h-7.6883v17.1216h-2.0448v-17.1216ZM84.7343,17.3501c2.2598-1.79,3.4497-3.87,3.4497-6.0701,0-6.3199-9.8896-11.28-22.5195-11.28h-.9404v13.4701h.9404c3.9897,0,7.8799.5399,11.2295,1.5499,2.0503.6201,3.8804,1.4202,5.3604,2.3301-1.4702.9099-3.27,1.7-5.2603,2.3101l-.1001.03c-1.9297.5798-4.0298,1.0099-6.2397,1.2599-1.6299.1901-3.3101.29-4.9897.29h-.9404v13.46h.9404c1.1396,0,2.2896-.0399,3.4097-.12,11.0698-.83,19.1099-5.52,19.1099-11.1599,0-2.1901-1.1899-4.27-3.4497-6.0701ZM77.4443,13.2301c-3.27-.99-7-1.5499-10.8501-1.63V1.8901c10.7803.23,19.71,4.4399,19.71,9.3899,0,1.98-1.4199,3.5701-2.79,4.6501-1.6699-1.0801-3.71-1.99-6.0698-2.7001ZM68.934,32.7101c-.7695.0499-1.5498.09-2.3398.11v-9.72c1.4399-.03,2.8799-.12,4.2803-.29,2.3096-.26,4.5195-.71,6.54-1.3199l.0996-.03c2.3301-.71,4.3398-1.61,6-2.6801,1.3701,1.0801,2.79,2.67,2.79,4.6401,0,4.5599-7.4697,8.5499-17.3701,9.2899ZM58.5207,74.653l.8392-2.621h1.6465l.8493,2.621h.1564l.7869-2.621h1.5163l-1.2296,3.6268h-2.1209l-.7921-2.4961h-.0365l-.7242,2.4961h-2.1157l-1.3653-3.6268h1.6206l.813,2.621h.1561ZM65.3589,75.6118v-3.5798h4.2417v.891h-2.762v.5158h2.5274v.7087h-2.5274v.5733h2.8295v.891h-4.3093ZM71.0499,75.6118v-3.5747h1.4797v2.5742h2.0168v1.0005h-3.4965ZM75.7715,75.6118v-3.5747h1.4797v2.5742h2.0168v1.0005h-3.4965ZM85.4277,75.6118h-1.2713l-1.9696-1.7561h-.2139v1.7561h-1.4797l.0052-3.5747h1.2768l1.9645,1.6518h.2084v-1.6518h1.4797v3.5747ZM86.8356,75.6118v-3.5798h4.2417v.891h-2.762v.5158h2.5274v.7087h-2.5274v.5733h2.8295v.891h-4.3093ZM94.3868,74.7989c.2659,0,.5057-.0364.5057-.172,0-.1615-.3025-.2553-.9433-.3752-.719-.1302-1.5841-.3335-1.5841-1.2245,0-.6826.5158-1.1411,1.8187-1.1411.7397,0,1.2034.1407,1.7819.3387l-.2553.9275c-.5678-.2397-1.068-.3387-1.5841-.3387-.2708,0-.5002.0261-.5002.2084,0,.2189.4692.2866.8913.344.7504.1042,1.5476.3074,1.5476,1.1672,0,.9066-.8964,1.1984-1.777,1.1984-.7504,0-1.5631-.1823-2.0217-.3855l.2708-.9224c.5316.2449,1.3443.3752,1.8497.3752ZM99.0983,74.7989c.2656,0,.5054-.0364.5054-.172,0-.1615-.3025-.2553-.9433-.3752-.719-.1302-1.5841-.3335-1.5841-1.2245,0-.6826.5158-1.1411,1.8187-1.1411.7397,0,1.2038.1407,1.7819.3387l-.2553.9275c-.5678-.2397-1.068-.3387-1.5841-.3387-.2708,0-.5002.0261-.5002.2084,0,.2189.4689.2866.8913.344.7504.1042,1.5476.3074,1.5476,1.1672,0,.9066-.8964,1.1984-1.777,1.1984-.7504,0-1.5631-.1823-2.0217-.3855l.2708-.9224c.5316.2449,1.3443.3752,1.8501.3752Z" style="fill:#fff;"/></g></svg>