<?xml version="1.0" encoding="UTF-8"?><svg id="Layer_2" xmlns="http://www.w3.org/2000/svg" viewBox="0 0 197.8922 81.1068"><g id="Components"><path id="fb90e9cc-05f0-4171-b07c-8702f3233717_5" d="M0,56.5588h11.7748c9.8122.0689,12.6699,1.8245,12.6699,6.1972,0,2.2035-1.3773,3.8216-5.5776,4.648,5.4055.8264,7.6434,2.7199,7.6434,6.1629,0,5.0608-3.5463,7.0232-14.7357,7.0921H0v-24.1002ZM11.6026,66.4743c7.7466,0,10.1564-1.0328,10.1564-3.7184s-2.4098-3.7184-10.1564-3.7184H2.5822v7.4368h9.0204ZM11.6026,78.1802c9.1236,0,12.2222-1.2396,12.2222-4.6133s-3.0986-4.6137-12.2222-4.6137H2.5822v9.227h9.0204ZM30.641,56.5588h2.5822v21.6214h16.2504v2.4788h-18.8326v-24.1002ZM51.5392,56.5588h2.5822v12.0501c0,6.8168,2.7888,9.9156,10.1909,9.9156s10.1911-3.0988,10.1911-9.9156v-12.0501h2.5822v12.0501c0,8.1942-3.5463,12.498-12.7733,12.498s-12.7731-4.3037-12.7731-12.498v-12.0501ZM81.7327,56.5588h11.7748c9.8122.0689,12.6699,2.5135,12.6699,6.8857s-2.8577,6.8172-12.6699,6.8857h-9.1926v10.3288h-2.5822v-24.1002ZM103.4918,63.4445c0-2.6856-2.4098-4.4069-10.1564-4.4069h-9.0204v8.8138h9.0204c7.7466,0,10.1564-1.7213,10.1564-4.4069ZM109.7911,56.5588h11.7748c9.8122.0689,12.6699,1.8245,12.6699,6.1972,0,3.9937-2.4101,5.784-10.3288,6.1282l10.9141,11.7748h-3.6839l-10.8452-11.7058h-7.9187v11.7058h-2.5822v-24.1002ZM131.5501,62.7559c0-2.6856-2.4098-3.7184-10.1564-3.7184h-9.0204v7.4368h9.0204c7.7466,0,10.1564-1.0328,10.1564-3.7184ZM138.9512,56.5588h2.5822v24.1002h-2.5822v-24.1002ZM146.6971,56.5588h2.5822l20.382,20.5197v-20.5197h2.5822v24.1002h-2.5822l-20.382-20.5197v20.5197h-2.5822v-24.1002ZM185.6011,59.0376h-9.7434v-2.4788h22.0346v2.4788h-9.709v21.6214h-2.5822v-21.6214ZM106.9999,21.9102c2.8599-2.26,4.3599-4.8901,4.3599-7.66,0-7.9901-12.4897-14.2501-28.4399-14.2501h-1.1899v17.01h1.1899c5.04,0,9.9502.6802,14.1899,1.9601,2.5903.78,4.8999,1.7899,6.7603,2.9401-1.8398,1.1399-4.1299,2.1499-6.6401,2.9099l-.1201.04c-2.4497.74-5.1001,1.27-7.8799,1.6-2.0698.24-4.1899.36-6.3101.36h-1.1899v17h1.1899c1.4502,0,2.8901-.05,4.2998-.1599,13.9902-1.04,24.1401-6.9601,24.1401-14.0801,0-2.77-1.5-5.4099-4.3599-7.6699ZM97.79,16.7001c-4.1201-1.25-8.8301-1.95-13.6899-2.0499V2.3901c13.6099.29,24.8901,5.6,24.8901,11.86,0,2.49-1.79,4.5-3.5303,5.86-2.1099-1.36-4.6797-2.51-7.6699-3.41ZM87.0497,41.3c-.9697.0701-1.96.1201-2.9497.1401v-12.27c1.8198-.03,3.6299-.1602,5.3999-.3601,2.9199-.34,5.71-.9099,8.2598-1.6699l.1304-.04c2.9399-.9,5.48-2.04,7.5698-3.39,1.7402,1.36,3.5303,3.37,3.5303,5.87,0,5.75-9.4302,10.79-21.9404,11.72Z" style="fill:#fff;"/></g></svg>