<svg width="320" height="60" fill="none" xmlns="http://www.w3.org/2000/svg">
    <path d="m43.126 40.907-5.16 11.322c-.888 1.908-1.605 3.198-2.15 3.871-.544.646-1.146.969-1.805.969-.631 0-1.19-.267-1.677-.8-.316-.337-1.047-1.571-2.193-3.704a107.433 107.433 0 0 1-2.795-5.681l-5.676-12.5c-.774-1.74-1.59-2.61-2.45-2.61-.918 0-1.42.744-1.505 2.231-.2 3.311-.301 6.37-.301 9.175 0 2.918.143 4.896.43 5.934.2.618.458 1.066.774 1.347.344.28 1.247.786 2.708 1.515.946.477 1.42 1.305 1.42 2.483 0 3.143-4.114 4.714-12.34 4.714C3.467 59.173 0 57.643 0 54.585c0-.785.172-1.346.516-1.683.373-.365 1.304-.898 2.795-1.6.946-.42 1.576-.995 1.892-1.725.344-.73.63-2.146.86-4.25.258-2.245.501-5.92.73-11.027.23-5.134.344-9.525.344-13.173 0-4.573-.358-7.673-1.074-9.3-.258-.562-.56-.983-.903-1.263-.316-.281-.932-.646-1.85-1.095C1.277 8.515.259 7.281.259 5.766c0-.982.373-1.88 1.118-2.694.774-.813 1.791-1.389 3.053-1.725C5.689.982 7.367.673 9.459.42 11.581.14 13.372 0 14.834 0c3.669 0 6.263.295 7.782.884.746.28 1.333.66 1.763 1.136.43.477 1.047 1.46 1.849 2.946l8.943 16.12c.975 1.767 1.648 2.847 2.021 3.24.373.393.889.589 1.548.589.574 0 1.075-.21 1.505-.631.459-.421.99-1.207 1.591-2.357l6.063-11.574A533.496 533.496 0 0 1 49.36 7.45c1.405-2.806 2.795-4.671 4.171-5.597C55.28.645 58.461.042 63.076.042c8.113 0 12.169 1.81 12.169 5.43 0 .813-.158 1.472-.474 1.977-.315.477-.96 1.066-1.934 1.768-1.319.982-2.15 2.399-2.494 4.25-.66 3.872-.989 8.586-.989 14.141 0 7.155.344 13.426 1.032 18.813.172 1.318.43 2.216.774 2.693.373.477 1.304 1.193 2.795 2.147 1.032.673 1.547 1.57 1.547 2.693 0 1.964-1.332 3.353-3.998 4.167a19.84 19.84 0 0 1-4.343.883c-1.52.14-3.855.211-7.008.211-4.845 0-8.456-.337-10.836-1.01-2.637-.758-3.955-2.048-3.955-3.872 0-.673.172-1.22.516-1.642.344-.448 1.232-1.248 2.666-2.398.745-.59 1.246-1.726 1.504-3.41.287-1.683.43-4.545.43-8.585 0-2.245-.114-3.717-.344-4.419-.2-.701-.645-1.052-1.333-1.052-.802 0-1.576.547-2.321 1.641-.746 1.067-1.864 3.213-3.354 6.44Z" fill="#000"/>
    <path d="M178.523 4.25v38.425c0 2.189.086 3.592.258 4.209.201.617.731 1.22 1.591 1.81 1.032.7 1.72 1.318 2.064 1.851.372.533.559 1.179.559 1.936 0 2.245-2.308 3.956-6.923 5.135a51.276 51.276 0 0 1-12.469 1.557c-.917 0-1.519-.14-1.806-.421-.258-.252-.43-.884-.516-1.894-.143-1.43-.659-2.146-1.548-2.146-.487 0-1.247.42-2.279 1.262-2.923 2.329-6.177 3.494-9.76 3.494-4.443 0-8.442-1.614-11.996-4.84a23.814 23.814 0 0 1-5.074-6.692c-1.719-3.283-2.579-6.608-2.579-9.974 0-3.957 1.117-7.772 3.353-11.448 2.064-3.395 4.873-6.004 8.428-7.828 2.981-1.515 5.919-2.272 8.814-2.272 3.325 0 6.306.73 8.943 2.188.431.224.774.337 1.032.337.918 0 1.376-1.207 1.376-3.62 0-1.038-.258-1.823-.774-2.357-.487-.56-1.375-1.038-2.665-1.43-1.806-.562-2.709-1.544-2.709-2.946 0-2.049 2.078-3.648 6.234-4.798C167.415 1.796 172.331.8 174.825.8c2.465 0 3.698 1.15 3.698 3.45Zm-23.347 21.17c-1.864 0-3.34.968-4.429 2.904-1.462 2.581-2.193 5.976-2.193 10.185 0 3.816.703 6.691 2.107 8.627 1.003 1.403 2.365 2.105 4.085 2.105 1.863 0 3.21-1.053 4.041-3.157.86-2.132 1.29-5.555 1.29-10.269 0-4.32-.501-7.197-1.505-8.627-.773-1.123-1.906-1.712-3.396-1.768Z" fill="#000"/>
    <path d="M235.795 4.25v38.425c0 2.189.086 3.592.258 4.209.201.617.731 1.22 1.591 1.81 1.032.7 1.719 1.318 2.064 1.851.372.533.559 1.179.559 1.936 0 2.245-2.308 3.956-6.923 5.135a51.276 51.276 0 0 1-12.469 1.557c-.917 0-1.519-.14-1.806-.421-.258-.252-.43-.884-.516-1.894-.143-1.43-.659-2.146-1.548-2.146-.487 0-1.247.42-2.279 1.262-2.923 2.329-6.177 3.494-9.76 3.494-4.443 0-8.442-1.614-11.996-4.84a23.795 23.795 0 0 1-5.074-6.692c-1.72-3.283-2.58-6.608-2.58-9.974 0-3.957 1.118-7.772 3.354-11.448 2.064-3.395 4.873-6.004 8.428-7.828 2.981-1.515 5.919-2.272 8.814-2.272 3.325 0 6.306.73 8.943 2.188.43.224.774.337 1.032.337.917 0 1.376-1.207 1.376-3.62 0-1.038-.258-1.823-.774-2.357-.487-.56-1.376-1.038-2.665-1.43-1.806-.562-2.709-1.544-2.709-2.946 0-2.049 2.078-3.648 6.234-4.798C224.687 1.796 229.603.8 232.097.8c2.465 0 3.698 1.15 3.698 3.45Zm-23.347 21.17c-1.864 0-3.34.968-4.429 2.904-1.462 2.581-2.193 5.976-2.193 10.185 0 3.816.702 6.691 2.107 8.627 1.003 1.403 2.365 2.105 4.085 2.105 1.863 0 3.21-1.053 4.041-3.157.86-2.132 1.29-5.555 1.29-10.269 0-4.32-.501-7.197-1.505-8.627-.774-1.123-1.906-1.712-3.396-1.768Z" fill="#000"/>
    <path d="M267.354 24.957v13.51c0 5.976.086 9.455.259 10.437.2.982.916 1.74 2.15 2.272 1.06.45 1.763.87 2.105 1.263.374.393.56.954.56 1.683 0 .926-.345 1.768-1.031 2.526-.66.757-1.549 1.29-2.665 1.599-2.064.617-5.548.926-10.45.926-5.533 0-9.417-.407-11.652-1.22-1.031-.366-1.876-.927-2.537-1.684-.659-.786-.989-1.6-.989-2.441 0-.674.172-1.193.516-1.557.373-.365 1.161-.8 2.365-1.305 1.119-.477 1.805-1.782 2.064-3.914.459-3.647.689-8.838.689-15.572 0-6.846-.2-11.25-.604-13.215-.4-1.964-1.404-3.423-3.009-4.377-1.204-.673-2.035-1.304-2.494-1.894-.429-.617-.644-1.36-.644-2.23 0-1.375.673-2.567 2.02-3.577 1.348-1.039 3.497-1.992 6.451-2.862 1.976-.59 4.543-1.15 7.694-1.684 3.154-.533 5.448-.8 6.881-.8 2.265 0 3.396 1.375 3.396 4.125 0 .898-.142 2.96-.43 6.187-.371 5.022-.586 9.623-.645 13.804Z" fill="#000"/>
    <path d="M102.848 16.372c4.988 0 9.216 1.234 12.685 3.703 1.834 1.319 3.11 2.834 3.826 4.545.746 1.684 1.118 4.012 1.118 6.987l-.086 6.27c0 4.35.315 7.17.946 8.46.315.617.616 1.01.903 1.178.287.169.889.323 1.806.463s1.376.73 1.376 1.767c0 1.347-.559 2.75-1.677 4.21-1.089 1.458-2.508 2.678-4.257 3.66-2.15 1.235-4.4 1.852-6.75 1.852-3.01 0-5.389-1.01-7.138-3.03-.602-.73-1.161-1.094-1.676-1.094-.574 0-1.333.35-2.279 1.052-2.867 2.048-6.12 3.072-9.76 3.072-3.756 0-6.794-.785-9.116-2.356a11.273 11.273 0 0 1-3.612-4.04c-.888-1.684-1.333-3.438-1.333-5.261 0-2.918 1.204-5.5 3.612-7.744 3.755-3.535 9.373-5.317 16.855-5.345 1.662 0 2.709-.154 3.138-.463.431-.337.646-1.094.646-2.273 0-2.974-.316-5.12-.946-6.439-.631-1.346-1.663-2.02-3.096-2.02-.86 0-1.634.253-2.322.758-.66.505-1.49 1.43-2.494 2.777-2.551 3.564-5.217 5.345-7.997 5.345-1.405 0-2.551-.406-3.44-1.22-.889-.814-1.333-1.88-1.333-3.199 0-1.346.545-2.693 1.634-4.04 1.118-1.347 2.623-2.525 4.515-3.535 5.188-2.694 10.606-4.04 16.252-4.04Zm-2.88 24.367c-1.261 0-2.365.505-3.311 1.515-.917 1.01-1.376 2.217-1.376 3.62 0 1.346.33 2.44.989 3.282.66.814 1.534 1.221 2.623 1.221 2.293 0 3.44-1.894 3.44-5.682 0-1.543-.172-2.581-.516-3.114-.316-.533-.932-.814-1.85-.842Z" fill="#000"/>
    <path d="m314.533 39.734-20.194-.762c-.889-.033-1.346.328-1.378 1.085-.071 1.823.865 3.585 2.804 5.287 1.972 1.674 4.116 2.555 6.437 2.643 1.375.052 2.902-.143 4.585-.585 1.71-.469 3.124-1.062 4.243-1.778 1.002-.636 1.788-.943 2.36-.921.745.028 1.458.504 2.137 1.428.682.924 1.004 1.863.965 2.816-.078 2.019-1.444 3.919-4.096 5.7-4.686 3.164-10.008 4.634-15.966 4.41-6.014-.227-10.988-2.128-14.92-5.701-1.911-1.757-3.464-3.851-4.659-6.283-1.566-3.232-2.279-6.6-2.14-10.105.184-4.71 1.813-8.888 4.881-12.535 2.65-3.157 5.953-5.461 9.91-6.912 2.971-1.096 6.158-1.58 9.568-1.45 5.443.205 10.008 1.893 13.699 5.065a18.273 18.273 0 0 1 4.429 5.558c1.253 2.405 1.835 4.73 1.747 6.973-.071 1.822-.518 3.308-1.337 4.456-.818 1.12-1.844 1.657-3.075 1.61Zm-18.768-8.584 4.339.164c1.834.069 2.782-.724 2.848-2.378.059-1.514-.335-2.764-1.187-3.75-.85-.988-1.991-1.508-3.422-1.562-1.605-.06-2.89.509-3.855 1.708-.904 1.117-1.38 2.264-1.427 3.442-.031.84.144 1.437.533 1.789.418.352 1.141.548 2.171.587Z" fill="#000"/>
  </svg>