<svg width="303" height="37" viewBox="0 0 303 37" fill="none" xmlns="http://www.w3.org/2000/svg">
<path d="M39.102 35.7961L36.3629 30.1291H16.2925L13.6007 35.7961H0L17.3788 0.661011H35.4186L53.7889 35.7961H39.102ZM32.0656 21.3455L26.1626 9.25581L20.4012 21.3455H32.0656Z" fill="black"/>
<path d="M77.8737 36.4574H73.5762C59.2827 36.4574 52.1362 32.3014 52.1362 23.99V23.5178H66.8703C67.122 26.8235 70.0498 28.4763 75.6541 28.4763H76.0792C77.8737 28.4763 79.3686 28.3899 80.5655 28.2165C81.7617 28.0438 82.6434 27.7914 83.2101 27.461C83.7767 27.1304 84.162 26.7844 84.3671 26.422C84.5715 26.0604 84.674 25.6428 84.674 25.1706V25.1235C84.674 24.4623 84.5087 23.9355 84.1781 23.5414C83.8475 23.1481 83.0602 22.8021 81.8169 22.5025C80.5728 22.2036 78.7708 22.0229 76.4096 21.9594L69.8927 21.7704C58.4008 21.456 52.6558 17.9298 52.6558 11.192V10.7673C52.6558 9.53943 52.8286 8.42962 53.1753 7.43802C53.5214 6.44643 54.1508 5.4782 55.0643 4.53368C55.9771 3.58934 57.1733 2.80268 58.6533 2.17248C60.1327 1.54298 62.0771 1.03169 64.4856 0.637751C66.894 0.244505 69.6878 0.0473633 72.868 0.0473633H77.071C91.301 0.0473633 98.4165 3.74719 98.4165 11.1451V11.523H83.824C83.5406 9.03627 80.7071 7.79198 75.3235 7.79198H74.8512C72.6471 7.79198 70.9471 7.92629 69.7509 8.19336C68.5541 8.46129 67.8146 8.76003 67.5313 9.0908C67.248 9.42121 67.1062 9.85444 67.1062 10.3894V10.4365C67.1062 10.9724 67.2715 11.4129 67.6021 11.7589C67.9327 12.1057 68.6802 12.4126 69.8453 12.6797C71.0098 12.9476 72.6471 13.0973 74.7567 13.1285L81.0848 13.2701C87.7272 13.4589 92.4814 14.3797 95.3467 16.0326C98.211 17.6856 99.6441 20.291 99.6441 23.8482V24.5094C99.6441 25.8006 99.4861 26.9731 99.1718 28.0275C98.8568 29.0828 98.2273 30.1526 97.2828 31.2389C96.3383 32.325 95.0867 33.2385 93.5284 33.9779C91.97 34.7179 89.8604 35.3164 87.2003 35.7725C84.5397 36.2285 81.4309 36.4574 77.8737 36.4574Z" fill="black"/>
<path d="M128.167 36.4572H126.326C122.201 36.4572 118.588 36.0477 115.488 35.2294C112.386 34.4109 109.97 33.3956 108.239 32.1833C106.507 30.9717 105.106 29.5313 104.036 27.8623C102.965 26.1937 102.272 24.6509 101.958 23.2342C101.643 21.8173 101.486 20.3382 101.486 18.7951V17.4257C101.486 15.8518 101.635 14.3723 101.934 12.9866C102.233 11.6016 102.902 10.0825 103.941 8.42951C104.98 6.77656 106.357 5.36005 108.073 4.17927C109.789 2.99867 112.213 2.0069 115.346 1.20414C118.478 0.40138 122.138 0 126.326 0H128.168C131.095 0 133.779 0.188834 136.219 0.566502C138.659 0.944516 140.706 1.43296 142.359 2.03061C144.012 2.62896 145.476 3.34553 146.751 4.17927C148.026 5.01371 149.025 5.85576 149.749 6.70577C150.473 7.55578 151.063 8.46135 151.52 9.4211C151.976 10.3819 152.276 11.2393 152.418 11.9949C152.559 12.7504 152.63 13.4906 152.63 14.2145V14.8284H138.699C137.628 11.2393 133.771 9.44481 127.129 9.44481C119.29 9.44481 115.37 12.1839 115.37 17.6619V18.2286C115.37 19.2675 115.551 20.2592 115.913 21.2036C116.275 22.1481 116.873 23.077 117.708 23.9899C118.541 24.9034 119.769 25.6272 121.391 26.1622C123.012 26.6981 124.94 26.9652 127.176 26.9652C129.128 26.9652 130.843 26.7845 132.324 26.422C133.803 26.0605 134.921 25.6591 135.676 25.2179C136.432 24.7772 137.062 24.2261 137.566 23.565C138.069 22.9038 138.368 22.4316 138.463 22.1481C138.557 21.8648 138.652 21.5504 138.746 21.2036H152.63V21.9593C152.63 23.03 152.472 24.1242 152.158 25.2413C151.843 26.3592 151.15 27.6187 150.08 29.0193C149.009 30.4206 147.632 31.6483 145.948 32.7027C144.263 33.758 141.887 34.647 138.817 35.371C135.747 36.095 132.197 36.4572 128.167 36.4572Z" fill="black"/>
<path d="M155.841 0.661011H194.707V9.25581H169.064V13.6478H194.187V22.1955H169.064V27.0124H195.084V35.7961H155.841V0.661011Z" fill="black"/>
<path d="M198.957 0.661011H213.974L234.375 20.6371V0.661011H247.692V35.7961H234.281L212.274 14.4978V35.7961H198.957V0.661011Z" fill="black"/>
<path d="M252.225 35.7961V0.661011H277.16C281.063 0.661011 284.527 0.976023 287.549 1.60553C290.572 2.23572 293.011 3.06947 294.869 4.10848C296.726 5.14733 298.246 6.40686 299.426 7.88638C300.607 9.36658 301.417 10.8615 301.858 12.3727C302.299 13.8839 302.52 15.5213 302.52 17.2841V18.701C302.52 20.4327 302.322 22.0538 301.929 23.5651C301.535 25.0761 300.764 26.6038 299.615 28.146C298.466 29.6888 296.986 31.003 295.176 32.0891C293.366 33.1752 290.926 34.0652 287.856 34.7574C284.787 35.4502 281.237 35.7962 277.207 35.7962H252.225V35.7961ZM265.637 9.86991V26.4928H275.601C284.259 26.4928 288.588 23.754 288.588 18.2757V17.9924C288.588 12.5778 284.259 9.86974 275.601 9.86974L265.637 9.86991Z" fill="black"/>
</svg>
