<svg width="537" height="84" viewBox="0 0 537 84" fill="none" xmlns="http://www.w3.org/2000/svg">
<path d="M252.738 21.7727V60.0504L233.975 69.1942V21.7727H222.706V69.1734L204.291 59.8912L204.326 21.0528C204.326 18.3602 202.78 15.8614 200.391 14.6985L171.668 0.695645C169.76 -0.231882 167.573 -0.231882 165.658 0.695645L136.935 14.6916C134.546 15.8545 133 18.3533 133 21.0459V62.2308H144.269V23.953L163.032 14.8093V62.2308H174.301V14.8093L193.001 23.9461L193.085 62.9022C193.085 65.8855 194.366 68.2182 196.609 69.3049L225.339 83.3009C226.293 83.7647 227.317 84 228.34 84C229.364 84 230.388 83.7647 231.342 83.3009L260.065 69.3049C262.454 68.1421 264 65.6433 264 62.9507V21.7727H252.731H252.738Z" fill="black"/>
<path d="M376.959 24.3615H367.408V59.8558H376.959V24.3615Z" fill="black"/>
<path d="M453.016 37.9448H436.708V24.1669H427.156V37.9448H400.859V46.9678H409.152C406.83 51.528 403.09 52.0007 399.997 52.0007C394.164 52.0007 390.466 48.2538 390.466 41.921C390.466 35.5882 394.859 31.2296 401.032 31.2296C403.514 31.2296 407.115 32.0846 408.86 35.2128L415.693 30.4163C412.057 24.1738 405.238 22.9921 400.859 22.9921C388.944 22.9921 380.998 30.6804 380.998 41.921C380.998 53.1616 388.179 60.8152 398.954 60.8152C406.67 60.8152 411.189 56.9849 412.057 54.2947L412.12 59.6682H419.593V46.9748H427.156V59.6682H436.708V46.9748H453.016V59.6682H462.567V24.1738H453.016V37.9517V37.9448Z" fill="black"/>
<path d="M332.011 59.6613H362.611V51.9312H341.562V45.2091H361.847V38.5773H341.562V31.8969H362.611V24.1669H332.011V59.6613Z" fill="black"/>
<path d="M465.647 32.1124H478.792V59.6613H488.295V32.1124H501.44V24.1669H465.647V32.1124Z" fill="black"/>
<path d="M521.092 38.6608L517.248 37.9865C513.953 37.4373 512.597 36.1235 512.597 34.3091C512.597 31.9873 514.794 30.4649 519.319 30.4649C524.352 30.4649 526.674 32.4114 527.181 35.324H535.718C535.718 26.0716 529.086 22.9851 519.493 22.9851C509.142 22.9851 503.435 27.0865 503.435 33.8851C503.435 42.0392 510.574 43.5199 517.338 44.6599L521.773 45.4176C525.742 46.0502 527.265 47.2806 527.265 49.3035C527.265 51.7087 524.602 53.3632 519.444 53.3215C513.869 53.3215 511.332 51.3751 511.116 48.379H502.497C502.371 56.9988 508.12 60.843 519.444 60.843C530.852 60.8847 536.726 56.9154 536.726 49.6024C536.726 40.7254 527.939 39.8842 521.092 38.6608Z" fill="black"/>
<path d="M316.189 43.8396H315.383L308.709 24.3615H301.396L294.723 43.8396H293.917V24.3615H284.789V59.8558H296.92L304.691 36.5266H305.414L313.186 59.8558H325.317V24.3615H316.189V43.8396Z" fill="black"/>
<path d="M28.9099 25.0069L20.9906 48.6607H20.2606L12.3413 25.0069H0V61H9.29595V41.2447H10.1164L16.9163 61H24.3628L31.1626 41.2447H31.9831V61H41.279V25.0069H28.9308H28.9099ZM45.1309 25.0069V33.06H58.5082V61H68.1865V33.06H81.5707V25.0069H45.1309ZM84.9707 25.0069V61H115V52.8984H94.6908V25H84.9637L84.9707 25.0069Z" fill="black"/>
</svg>
