<svg width="222" height="84" viewBox="0 0 222 84" fill="none" xmlns="http://www.w3.org/2000/svg">
<path d="M19.2422 61.746H26.6258C31.9925 61.746 33.3574 64.9791 33.3574 67.6177C33.3574 70.2563 31.3708 72.807 28.1968 73.1634L34.1581 82.7414H30.5989L25.261 73.4895H22.0886V82.7414H19.2422V61.746ZM22.0886 70.9979H25.8251C28.0786 70.9979 30.332 70.4641 30.332 67.6177C30.332 64.7713 28.0786 64.2375 25.8251 64.2375H22.0886V70.9995V70.9979Z" fill="black"/>
<path d="M41.8102 61.746H55.3628V64.4149H44.6566V70.6719H54.6213V73.3408H44.6566V80.0724H55.895V82.7414H41.8086V61.746H41.8102Z" fill="black"/>
<path d="M78.9968 66.2832C77.811 64.741 75.8532 63.8811 73.9258 63.8811C69.2111 63.8811 66.0963 67.6481 66.0963 72.4219C66.0963 76.8408 69.0321 80.6062 73.9258 80.6062C76.3279 80.6062 78.1658 79.5386 79.4124 77.7886L81.8144 79.5977C81.1911 80.4575 78.6708 83.2752 73.8666 83.2752C67.1942 83.2752 63.0725 77.7007 63.0725 72.4219C63.0725 65.898 67.5506 61.2122 74.0153 61.2122C76.7738 61.2122 79.6793 62.2494 81.3701 64.4741L78.9984 66.2832H78.9968Z" fill="black"/>
<path d="M88.399 72.2429C88.399 66.0147 92.9363 61.2106 99.3418 61.2106C105.747 61.2106 110.285 66.0147 110.285 72.2429C110.285 78.471 105.747 83.2752 99.3418 83.2752C92.9363 83.2752 88.399 78.471 88.399 72.2429ZM107.259 72.2429C107.259 67.6465 104.146 63.8795 99.3418 63.8795C94.5377 63.8795 91.4244 67.6465 91.4244 72.2429C91.4244 76.8393 94.5377 80.6062 99.3418 80.6062C104.146 80.6062 107.259 76.8393 107.259 72.2429Z" fill="black"/>
<path d="M115.949 61.746H119.241L125.408 78.8274H125.467L131.873 61.746H134.986L126.712 82.7414H124.043L115.947 61.746H115.949Z" fill="black"/>
<path d="M141.956 61.746H155.509V64.4149H144.804V70.6719H154.769V73.3408H144.804V80.0724H156.042V82.7414H141.956V61.746Z" fill="black"/>
<path d="M164.524 61.746H171.908C177.276 61.746 178.639 64.9791 178.639 67.6177C178.639 70.2563 176.653 72.807 173.48 73.1634L179.441 82.7414H175.882L170.544 73.4895H167.372V82.7414H164.526V61.746H164.524ZM167.37 70.9979H171.107C173.36 70.9979 175.614 70.4641 175.614 67.6177C175.614 64.7713 173.36 64.2375 171.107 64.2375H167.37V70.9995V70.9979Z" fill="black"/>
<path d="M191.511 73.7851L183.563 61.746H187.21L192.933 70.9691L198.834 61.746H202.304L194.356 73.7851V82.7414H191.509V73.7851H191.511Z" fill="black"/>
<path d="M41.2812 53.7407H33.5028V33.4996C33.5028 26.4069 27.7334 20.6374 20.6406 20.6374C13.5478 20.6374 7.77838 26.4069 7.77838 33.4996V53.7407H0V33.4996C0 22.1173 9.2599 12.859 20.6406 12.859C32.0213 12.859 41.2812 22.1189 41.2812 33.4996V53.7407Z" fill="black"/>
<path d="M103.224 53.7407H95.4454V33.4996C95.4454 22.1189 104.705 12.859 116.086 12.859V20.6374C108.993 20.6374 103.224 26.4069 103.224 33.4996V53.7407Z" fill="black"/>
<path d="M68.2427 54.2105C56.8412 54.2105 47.5653 44.9347 47.5653 33.5348C47.5653 22.1349 56.8412 12.859 68.2427 12.859C79.6441 12.859 88.9184 22.1349 88.9184 33.5348C88.9184 44.9347 79.6425 54.2105 68.2427 54.2105ZM68.2427 20.6374C61.1307 20.6374 55.3453 26.4228 55.3453 33.5348C55.3453 40.6467 61.1307 46.4322 68.2427 46.4322C75.3546 46.4322 81.1401 40.6467 81.1401 33.5348C81.1401 26.4228 75.3546 20.6374 68.2427 20.6374Z" fill="black"/>
<path d="M141.341 54.2105C129.939 54.2105 120.665 44.9347 120.665 33.5348C120.665 22.1349 129.941 12.859 141.341 12.859C152.74 12.859 162.018 22.1349 162.018 33.5348C162.018 44.9347 152.742 54.2105 141.341 54.2105ZM141.341 20.6374C134.229 20.6374 128.443 26.4228 128.443 33.5348C128.443 40.6467 134.229 46.4322 141.341 46.4322C148.453 46.4322 154.238 40.6467 154.238 33.5348C154.238 26.4228 148.453 20.6374 141.341 20.6374Z" fill="black"/>
<path d="M162.016 0H154.238V53.7407H162.016V0Z" fill="black"/>
<path d="M178.187 13.1899H170.408V53.7408H178.187V13.1899Z" fill="black"/>
<path d="M194.474 13.1899H186.696V53.7392H194.474V13.1899Z" fill="black"/>
<path d="M217.915 13.1899L205.02 30.9602L200.216 37.5831L194.474 45.4989L190.734 50.6547L186.696 47.7236V42.9722L194.474 32.2515L195.411 30.9602L200.216 24.3373L208.303 13.1899H217.915Z" fill="black"/>
<path d="M221.547 53.739H211.937L200.216 37.5829L195.411 30.9601L200.216 24.3372L205.02 30.9601L221.547 53.739Z" fill="black"/>
</svg>
