<?xml version="1.0" encoding="UTF-8"?><svg id="Layer_2" xmlns="http://www.w3.org/2000/svg" viewBox="0 0 19.9116 29.4241"><g id="Components"><path id="_75d488c5-0608-45b6-a1af-862401042b27_5" d="M19.9116,9.5727C19.9116,4.2048,11.526,0,.821,0h-.821v11.4523h.821c3.3805,0,6.6668.4536,9.5035,1.3117,1.7148.5188,3.2464,1.1866,4.4873,1.9478-1.229.7538-2.7366,1.4151-4.4036,1.9247l-.0841.0252c-1.6368.493-3.4121.8525-5.2766,1.0685-1.3825.1603-2.8046.2416-4.2264.2416h-.821v11.4522h.821c.9696,0,1.9411-.0357,2.8877-.1062,9.3887-.7007,16.203-4.6819,16.203-9.4664,0-1.8582-1.0032-3.6234-2.9049-5.1394,1.9017-1.5159,2.9049-3.2811,2.9049-5.1394ZM1.642,9.8189V1.6511c9.0953.2025,16.6277,3.7476,16.6277,7.9216,0,1.6558-1.1847,2.9915-2.3382,3.8993-1.4143-.9106-3.1374-1.6764-5.1316-2.2796-2.7571-.834-5.9076-1.3054-9.158-1.3735ZM18.2697,19.8515c0,3.8386-6.3124,7.2043-14.683,7.829-.6391.0476-1.2904.0786-1.9447.0928v-8.168c1.2102-.0254,2.4158-.1072,3.5945-.2438,1.9606-.2271,3.8317-.6065,5.5396-1.1213l.0894-.0267c1.9626-.5997,3.6635-1.3593,5.0658-2.2616,1.1535.9078,2.3384,2.2437,2.3384,3.8996Z" style="fill:#fff;"/></g></svg>